<?xml version="1.0" encoding="UTF-8"?><svg id="Layer_1" xmlns="http://www.w3.org/2000/svg" viewBox="0 0 432 432"><defs><style>.cls-1{fill:#fefefe;}.cls-2{fill:#83c300;}.cls-3{fill:none;stroke:#fff;stroke-miterlimit:10;stroke-width:2.16px;}</style></defs><path class="cls-2" d="M216,0C96.71,0,0,96.71,0,216s96.71,216,216,216,216-96.71,216-216S335.29,0,216,0Zm-22.1,309.44c-5.75,13.35-13.97,25.14-23.28,36.21-2.34,2.79-2.44,2.79-5.72,1.28-28.43-13.05-49.32-33.73-62.5-62.08-8.73-18.79-12.38-38.66-11.01-59.3,2.08-31.36,14.35-58.26,36.46-80.63,.21-.21,.43-.43,.65-.64,2.56-2.41,2.63-2.47,4.94,.11,6.91,7.72,14.57,14.57,23.19,20.34,10.44,6.98,21.77,12.01,34.03,14.69,3.27,.71,4.85,2.2,5.85,5.29,4.12,12.86,8.19,25.72,9.59,39.23,.66,6.33,.95,12.69,1.2,16.33-.67,25.64-4.27,47.96-13.41,69.16Zm-41.68-179.22c-2.43-2.64-2.41-2.78,.65-4.61,6.52-3.9,13.38-7.08,20.52-9.67,1.42-.52,2.88-.95,4.29-1.51,2.21-.88,2.28-1.15,.92-3.27-.49-.76-1.07-1.47-1.62-2.2-5.78-7.79-11.56-15.57-17.32-23.37-.9-1.22-1.86-2.42-2.52-3.77-1.87-3.8-.69-8.15,2.69-10.48,3.31-2.28,7.36-1.94,10.36,1.01,1.18,1.16,2.16,2.53,3.15,3.87,7.51,10.09,15.07,20.14,22.42,30.34,1.76,2.44,3.56,3.21,6.48,2.8,9.19-1.29,18.44-1.31,27.63,0,2.96,.42,4.72-.49,6.45-2.88,7.55-10.43,15.29-20.73,22.98-31.06,.81-1.09,1.61-2.22,2.59-3.16,3.12-2.98,7.46-3.19,10.76-.61,3.15,2.46,4.09,6.51,2.23,10.2-.61,1.21-1.45,2.31-2.26,3.4-5.76,7.8-11.55,15.58-17.32,23.37-.54,.73-1.1,1.45-1.62,2.2-1.8,2.63-1.79,2.7,1.02,3.74,1.28,.48,2.58,.87,3.87,1.33,7.14,2.58,14,5.78,20.53,9.65,3.2,1.89,3.22,1.98,.87,4.55-17.31,18.81-38.48,29.01-63.85,28.79-25.93,.02-46.82-10.13-63.9-28.68Zm119.5,214.6c-1.49,.75-3.02,1.42-4.55,2.08-3.46,1.5-3.43,1.46-6.02-1.53-19.72-22.66-30.77-49.08-34.51-78.77-.99-7.84-1.66-15.67-1.67-25.41-.73-19,4.52-38.71,11.18-58.17,.71-2.06,2.01-2.88,3.89-3.24,4.18-.81,8.23-2.05,12.24-3.46,17.26-6.06,31.73-16.28,44.17-29.55,.62-.66,1.23-1.34,1.85-2.01,2.72-2.94,2.76-2.98,5.55-.21,15.25,15.17,26.08,33.02,32.07,53.69,16.83,58.16-10.06,119.47-64.19,146.57Z"/><path class="cls-1" d="M303.84,144.55c-2.79-2.77-2.83-2.74-5.55,.21-.62,.67-1.22,1.35-1.85,2.01-12.44,13.26-26.91,23.49-44.17,29.55-4.01,1.41-8.06,2.65-12.24,3.46-1.89,.36-3.19,1.18-3.89,3.24-6.66,19.47-11.91,39.18-11.18,58.17,.01,9.73,.68,17.57,1.67,25.41,3.74,29.68,14.79,56.11,34.51,78.77,2.6,2.98,2.56,3.03,6.02,1.53,1.53-.66,3.06-1.33,4.55-2.08,54.13-27.1,81.03-88.42,64.19-146.57-5.98-20.67-16.82-38.52-32.07-53.69Z"/><path class="cls-1" d="M196.5,184.72c-.99-3.1-2.57-4.58-5.85-5.29-12.26-2.68-23.58-7.71-34.03-14.69-8.62-5.76-16.29-12.61-23.19-20.34-2.31-2.58-2.38-2.52-4.94-.11-.22,.21-.44,.42-.65,.64-22.12,22.37-34.39,49.26-36.46,80.63-1.37,20.63,2.28,40.51,11.01,59.3,13.18,28.35,34.07,49.04,62.5,62.08,3.28,1.51,3.38,1.51,5.72-1.28,9.3-11.07,17.53-22.86,23.28-36.21,9.14-21.2,12.73-43.53,13.41-69.16-.26-3.64-.54-10.01-1.2-16.33-1.41-13.5-5.47-26.37-9.59-39.23Z"/><path class="cls-1" d="M279.98,130.1c2.36-2.56,2.33-2.65-.87-4.55-6.54-3.87-13.39-7.07-20.53-9.65-1.28-.46-2.59-.86-3.87-1.33-2.81-1.05-2.83-1.11-1.02-3.74,.51-.75,1.07-1.47,1.62-2.2,5.78-7.79,11.56-15.57,17.32-23.37,.81-1.09,1.65-2.19,2.26-3.4,1.86-3.69,.93-7.74-2.23-10.2-3.31-2.57-7.65-2.37-10.76,.61-.98,.93-1.78,2.07-2.59,3.16-7.69,10.33-15.43,20.63-22.98,31.06-1.73,2.39-3.49,3.3-6.45,2.88-9.19-1.32-18.43-1.29-27.63,0-2.92,.41-4.72-.36-6.48-2.8-7.35-10.2-14.92-20.25-22.42-30.34-.99-1.34-1.97-2.71-3.15-3.87-3-2.95-7.06-3.29-10.36-1.01-3.38,2.33-4.55,6.68-2.69,10.48,.66,1.35,1.62,2.55,2.52,3.77,5.76,7.8,11.54,15.58,17.32,23.37,.54,.73,1.12,1.43,1.62,2.2,1.36,2.12,1.29,2.39-.92,3.27-1.41,.56-2.86,.99-4.29,1.51-7.14,2.6-14,5.77-20.52,9.67-3.06,1.83-3.09,1.97-.65,4.61,17.08,18.55,37.97,28.69,63.9,28.68,25.37,.22,46.54-9.98,63.85-28.79Z"/><rect class="cls-3" x="-1300.19" y="-2981.18" width="6973.76" height="3570.53"/></svg>