<?xml version="1.0" encoding="UTF-8"?><svg id="Layer_1" xmlns="http://www.w3.org/2000/svg" viewBox="0 0 432 432"><defs><style>.cls-1{fill:#fb89eb;}.cls-2{fill:#fff;}.cls-3{fill:none;stroke:#fff;stroke-miterlimit:10;stroke-width:2.16px;}</style></defs><path class="cls-1" d="M216,0C96.71,0,0,96.71,0,216s96.71,216,216,216,216-96.71,216-216S335.29,0,216,0Zm159.05,216.13l-78.4,42.88,14.8,50.04c.03,.12-.07,.22-.19,.19l-51.05-14.8-44.09,80.62c-.06,.1-.21,.1-.26,0l-44.09-80.62-51.05,14.8c-.11,.03-.22-.07-.19-.19l14.8-50.04-78.4-42.88c-.1-.06-.1-.21,0-.26l79.04-43.23-15.45-52.22c-.03-.12,.07-.22,.19-.19l52.25,15.15,42.89-78.43c.06-.1,.21-.1,.26,0l42.89,78.43,52.25-15.15c.11-.03,.22,.07,.19,.19l-15.45,52.22,79.04,43.23c.1,.06,.1,.21,0,.26Z"/><path class="cls-1" d="M236.33,196.51l-19.78-36.17c-.06-.1-.21-.1-.26,0l-19.78,36.17-36.17,19.78c-.1,.06-.1,.21,0,.26l36.17,19.78,19.78,36.17c.06,.1,.21,.1,.26,0l19.78-36.17,36.17-19.78c.1-.06,.1-.21,0-.26l-36.17-19.78Z"/><path class="cls-2" d="M311.46,120.41c.03-.11-.07-.22-.19-.19l-52.25,15.15-42.89-78.43c-.06-.1-.21-.1-.26,0l-42.89,78.43-52.25-15.15c-.11-.03-.22,.07-.19,.19l15.45,52.22-79.04,43.23c-.1,.06-.1,.21,0,.26l78.4,42.88-14.8,50.04c-.03,.12,.07,.22,.19,.19l51.05-14.8,44.09,80.62c.06,.1,.21,.1,.26,0l44.09-80.62,51.05,14.8c.11,.03,.22-.07,.19-.19l-14.8-50.04,78.4-42.88c.1-.06,.1-.21,0-.26l-79.04-43.23,15.45-52.22Zm-38.97,96.14l-36.17,19.78-19.78,36.17c-.06,.1-.21,.1-.26,0l-19.78-36.17-36.17-19.78c-.1-.06-.1-.21,0-.26l36.17-19.78,19.78-36.17c.06-.1,.21-.1,.26,0l19.78,36.17,36.17,19.78c.1,.06,.1,.21,0,.26Z"/><rect class="cls-3" x="-1300.19" y="-829.44" width="6973.76" height="3570.53"/></svg>