<?xml version="1.0" encoding="UTF-8"?><svg id="Layer_1" xmlns="http://www.w3.org/2000/svg" viewBox="0 0 432 432"><defs><style>.cls-1{fill:#fefefe;}.cls-2{fill:#ff9741;}.cls-3{fill:none;stroke:#fff;stroke-miterlimit:10;stroke-width:2.16px;}</style></defs><path class="cls-2" d="M216,0C96.71,0,0,96.71,0,216s96.71,216,216,216,216-96.71,216-216S335.29,0,216,0Zm98.17,289.55c-15.05,20.31-35.92,30.27-61.39,29.94-3.07-.04-6.14-.5-9.2-.8-.79-.08-1.79-.03-2.12-.89-.36-.95,.61-1.34,1.2-1.82,1-.83,2.08-1.56,3.04-2.43,13.59-12.48,18.75-27.93,14.67-45.81-4.01-17.56-15.11-29.18-32.64-33.95-22.79-6.2-46.81,7.98-53.4,31.41-4.72,16.78-.85,31.93,10.17,45.06,13.47,16.06,31.04,24.59,51.88,26.53,20.18,1.88,39.37-2.34,58.03-9.53,6.5-2.5,12.77-5.58,19.15-8.4l.06,.07c-.05,1.58-1.11,2.65-1.92,3.85-13.09,19.29-30.75,32.25-53.29,38.43-15.25,4.18-30.74,7.09-46.6,5.95-40.04-2.88-73.21-18.77-96.22-52.71-11.26-16.61-16.81-35.33-18.28-55.28-2.01-27.11,3.74-52.88,13.55-77.94,1.01-2.57,2.06-5.12,3.16-7.64,.29-.66,.41-1.81,1.5-1.5,.63,.18,.49,1.08,.49,1.7,.01,1.62-.02,3.25-.02,4.87,.07,19.38,1.79,38.56,7.6,57.17,1.94,6.2,4.24,12.26,7.02,18.14,.33,.69,.64,1.67,1.63,1.35,.28-.09,.39-1.19,.32-1.79-.98-8.06-1.32-16.17-1.5-24.27-.71-31.55,7.33-60.06,29.62-83.42,6.15-6.45,12.59-12.63,19.87-17.87,5.8-4.17,11.25-8.77,16.17-13.99,9.32-9.89,13.93-21.7,14.55-35.18,.38-8.32-.71-16.51-2.28-24.65-.18-.95-.38-1.91-.5-2.87-.04-.29,.1-.86,.21-.88,.42-.05,.89,.01,1.29,.15,.28,.1,.5,.4,.74,.62,12.17,11.34,23.18,23.62,30.86,38.56,6.84,13.31,9.74,27.43,8.6,42.36-.36,4.76-.32,4.82-5.05,6.24-14.03,4.2-23.9,17.96-23.24,33.38,.61,14.33,10.27,26.94,24.16,30.71,17.51,4.75,35.37-5.97,40.13-24.06,2-7.6,1.27-15.11-.52-22.61-1.02-4.26-2.41-8.42-3.93-12.53-.31-.85-1.23-1.96-.26-2.63,.81-.56,1.78,.43,2.59,.91,18.93,11.25,33.97,26.25,42.38,46.8,14.69,35.88,10.87,70.05-12.25,101.25Z"/><path class="cls-1" d="M284.04,141.5c-.81-.48-1.78-1.47-2.59-.91-.97,.67-.06,1.78,.26,2.63,1.52,4.11,2.91,8.26,3.93,12.53,1.79,7.5,2.52,15.01,.52,22.61-4.76,18.08-22.62,28.81-40.13,24.06-13.89-3.77-23.55-16.38-24.16-30.71-.65-15.42,9.21-29.17,23.24-33.38,4.74-1.42,4.69-1.48,5.05-6.24,1.14-14.94-1.77-29.05-8.6-42.36-7.68-14.94-18.69-27.22-30.86-38.56-.24-.22-.46-.52-.74-.62-.4-.14-.87-.2-1.29-.15-.11,.01-.25,.58-.21,.88,.13,.96,.32,1.92,.5,2.87,1.57,8.14,2.66,16.32,2.28,24.65-.62,13.48-5.23,25.29-14.55,35.18-4.92,5.22-10.38,9.82-16.17,13.99-7.28,5.24-13.72,11.42-19.87,17.87-22.29,23.36-30.33,51.87-29.62,83.42,.18,8.1,.52,16.21,1.5,24.27,.07,.6-.04,1.7-.32,1.79-.99,.32-1.3-.66-1.63-1.35-2.79-5.87-5.09-11.94-7.02-18.14-5.82-18.62-7.53-37.79-7.6-57.17,0-1.62,.03-3.25,.02-4.87,0-.62,.14-1.52-.49-1.7-1.08-.3-1.21,.84-1.5,1.5-1.1,2.53-2.15,5.08-3.16,7.64-9.81,25.06-15.55,50.83-13.55,77.94,1.47,19.95,7.02,38.67,18.28,55.28,23.01,33.94,56.18,49.83,96.22,52.71,15.85,1.14,31.35-1.77,46.6-5.95,22.54-6.17,40.2-19.14,53.29-38.43,.81-1.2,1.88-2.27,1.92-3.85l-.06-.07c-6.38,2.82-12.65,5.89-19.15,8.4-18.66,7.19-37.84,11.4-58.03,9.53-20.85-1.94-38.41-10.47-51.88-26.53-11.01-13.12-14.89-28.27-10.17-45.06,6.59-23.43,30.61-37.62,53.4-31.41,17.53,4.77,28.63,16.39,32.64,33.95,4.09,17.88-1.07,33.33-14.67,45.81-.95,.88-2.04,1.61-3.04,2.43-.59,.48-1.56,.87-1.2,1.82,.33,.86,1.34,.81,2.12,.89,3.07,.3,6.13,.76,9.2,.8,25.48,.33,46.35-9.63,61.39-29.94,23.12-31.2,26.94-65.37,12.25-101.25-8.41-20.55-23.45-35.55-42.38-46.8Z"/><rect class="cls-3" x="-771.91" y="-2981.18" width="6973.76" height="3570.53"/></svg>