<?xml version="1.0" encoding="UTF-8"?><svg id="Layer_1" xmlns="http://www.w3.org/2000/svg" viewBox="0 0 432 432"><defs><style>.cls-1{fill:#fefefe;}.cls-2{fill:#4c6ab2;}.cls-3{fill:none;stroke:#fff;stroke-miterlimit:10;stroke-width:2.16px;}</style></defs><path class="cls-2" d="M190.35,194.72c-14.72,5.87-31.15-.29-38.44-14.1-1.98-3.76-3.04-7.79-3.54-12-.24-2.06-.57-2.18-2.34-1.07-.83,.52-1.6,1.13-2.36,1.75-10,8.23-13.76,21.94-9.4,34.16,4.39,12.29,15.84,20.37,28.92,20.41,15.51,.04,28.24-10.89,30.65-26.22,.56-3.55,.94-4.69-3.5-2.92Z"/><path class="cls-2" d="M216,0C96.71,0,0,96.71,0,216s96.71,216,216,216,216-96.71,216-216S335.29,0,216,0Zm98.02,323.6c3.11,3.82,6.69,7.15,10.99,9.64,.63,.36,1.26,.71,1.9,1.07,1.56,.89,3.11,1.78,4.68,2.64,1.03,.57,1.25,1.06,0,1.6-.51,.22-1.02,.46-1.53,.68-15.62,6.79-31.79,11.69-48.79,13.24-7.79,.71-12.21,1.17-23.48,1.06-6.19,.04-11.75,.09-17,.05-10.52-.07-19.78-.52-30.22-2.21-13.67-2.21-29.24-5.86-42.36-10.36-47.47-19.5-77.69-49.54-90.77-99.19-10.6-51.77,3.44-95.89,41.93-131.85,21.51-20.09,47.57-31.37,76.77-34.68,67.95-7.7,129.12,33.48,148,94.87,15,48.8,4.74,92.86-28.48,131.59-1.27,1.48-2.71,2.83-3.6,4.62-3.08,6.17-2.34,11.94,1.96,17.23Z"/><path class="cls-2" d="M279.79,168.44c-.88-.65-1.77-1.76-2.89-1.47-1.41,.37-.82,1.88-.94,2.89-1.43,12.25-10.17,22.62-22.04,25.91-7.11,1.97-14.09,1.48-20.91-1.44-2.32-.99-2.64-.71-2.49,1.78,.06,.97,.21,1.95,.4,2.9,2.84,14.48,15.37,24.8,30.13,24.84,13.61,.03,25.3-8.41,29.51-21.32,4.05-12.42-.36-26.38-10.78-34.1Z"/><path class="cls-1" d="M315.66,301.75c33.22-38.73,43.48-82.79,28.48-131.59-18.87-61.4-80.04-102.58-148-94.87-29.21,3.31-55.26,14.59-76.77,34.68-38.49,35.96-52.53,80.08-41.93,131.85,13.07,49.65,43.3,79.69,90.77,99.19,13.12,4.5,28.69,8.15,42.36,10.36,10.44,1.69,19.7,2.13,30.22,2.21,5.25,.04,10.81-.01,17-.05,11.28,.12,15.69-.35,23.48-1.06,17.01-1.55,33.17-6.44,48.79-13.24,.51-.22,1.02-.46,1.53-.68,1.24-.54,1.03-1.04,0-1.6-1.57-.86-3.13-1.75-4.68-2.64-.63-.36-1.27-.71-1.9-1.07-4.3-2.49-7.88-5.82-10.99-9.64-4.31-5.3-5.04-11.06-1.96-17.23,.89-1.79,2.33-3.13,3.6-4.62Zm-121.8-104.11c-2.41,15.33-15.14,26.26-30.65,26.22-13.08-.04-24.53-8.12-28.92-20.41-4.37-12.22-.6-25.93,9.4-34.16,.76-.62,1.53-1.23,2.36-1.75,1.77-1.11,2.1-.99,2.34,1.07,.49,4.21,1.55,8.24,3.54,12,7.28,13.81,23.72,19.97,38.44,14.1,4.44-1.77,4.06-.63,3.5,2.92Zm96.71,4.9c-4.21,12.91-15.89,21.35-29.51,21.32-14.76-.04-27.29-10.35-30.13-24.84-.19-.96-.34-1.93-.4-2.9-.15-2.49,.17-2.78,2.49-1.78,6.82,2.92,13.8,3.41,20.91,1.44,11.87-3.28,20.61-13.65,22.04-25.91,.12-1.01-.47-2.52,.94-2.89,1.12-.29,2,.81,2.89,1.47,10.42,7.72,14.82,21.67,10.78,34.1Z"/><rect class="cls-3" x="-771.91" y="-1905.31" width="6973.76" height="3570.53"/></svg>