<?xml version="1.0" encoding="UTF-8"?><svg id="Layer_1" xmlns="http://www.w3.org/2000/svg" viewBox="0 0 432 432"><defs><style>.cls-1{fill:#e87236;}.cls-2{fill:#fff;}.cls-3{fill:none;stroke:#fff;stroke-miterlimit:10;stroke-width:2.16px;}</style></defs><path class="cls-1" d="M216,0C96.71,0,0,96.71,0,216s96.71,216,216,216,216-96.71,216-216S335.29,0,216,0ZM100.21,298.96H52.15c-.08,0-.13-.08-.1-.15l55.07-142.27s.06-.07,.1-.07h46.3c.08,0,.13,.08,.1,.15l-53.31,142.27s-.06,.07-.1,.07Zm269.32-.79H136.87c-.08,0-.13-.07-.1-.15L208.33,115.35s.06-.07,.1-.07h90.6s.09,.03,.1,.07l70.5,182.67c.02,.07-.03,.15-.1,.15Z"/><path class="cls-2" d="M153.52,156.47h-46.3s-.09,.03-.1,.07l-55.07,142.27c-.03,.07,.03,.15,.1,.15h48.06s.09-.03,.1-.07l53.31-142.27c.03-.07-.03-.15-.1-.15Z"/><path class="cls-2" d="M299.04,115.28h-90.6s-.09,.03-.1,.07l-71.56,182.67c-.02,.07,.03,.15,.1,.15h232.67c.08,0,.13-.07,.1-.15l-70.5-182.67s-.06-.07-.1-.07Z"/><rect class="cls-3" x="-771.91" y="-829.44" width="6973.76" height="3570.53"/></svg>