<?xml version="1.0" encoding="UTF-8"?><svg id="Layer_1" xmlns="http://www.w3.org/2000/svg" viewBox="0 0 432 432"><defs><style>.cls-1{fill:#fefefe;}.cls-2{fill:#b567ce;}.cls-3{fill:none;stroke:#fff;stroke-miterlimit:10;stroke-width:2.16px;}</style></defs><path class="cls-2" d="M271.12,147.74c-14.08-8.37-29.37-12.78-45.67-14.1-20.67-1.68-40.38,1.66-58.94,10.97-13.59,6.82-24.96,16.26-32.27,29.88-8.39,15.63-8.84,31.58-1.12,47.6,6.22,12.92,16.25,22.29,28.46,29.42,16.75,9.78,34.98,13.97,54.26,14.05,11.4,.05,22.57-1.5,33.47-4.86,15.67-4.83,29.52-12.64,40.5-25.06,18.62-21.08,19.26-48.7,1.61-70.6-5.67-7.04-12.55-12.69-20.3-17.3Z"/><path class="cls-2" d="M216,0C96.71,0,0,96.71,0,216s96.71,216,216,216,216-96.71,216-216S335.29,0,216,0Zm124.83,262.06c-6.87,9.83-15.19,18.36-24.64,25.71-2.77,2.15-3.38,4.14-2.47,7.58,3.48,13.08,2.57,25.97-2.89,38.43-2.98,6.8-7.22,12.66-13.36,16.99-10.03,7.07-22.12,7.07-32.11-.03-7.04-5.01-11.46-11.97-14.59-19.87-.53-1.34-.57-3.73-1.87-3.72-1.82,.01-1.54,2.49-2.1,3.88-2.82,7.08-6.97,13.13-13.2,17.62-11.71,8.44-27.14,7.56-37.86-2.11-4.97-4.48-8.55-9.88-10.82-16.16-.35-.98-.67-1.98-1.11-2.91-.33-.7-.95-.76-1.29-.03-.57,1.21-1.01,2.47-1.48,3.72-2.35,6.22-5.78,11.73-10.58,16.37-11.84,11.44-28.17,11.41-39.97-.15-8.59-8.42-12.68-18.97-13.83-30.7-.74-7.59-.51-15.21,1.88-22.55,.85-2.6,.12-4.05-1.93-5.63-12.5-9.66-22.91-21.23-31.01-34.81-10.8-18.11-16.16-37.73-15.29-58.81,1.06-25.63,10.59-48.05,27.2-67.46,19.49-22.78,44.31-37.11,72.92-45.22,14.84-4.21,30.02-6.03,47.05-6.24,34.85,.55,68.31,10.27,97.45,32.82,19.04,14.74,33.47,33.11,41.06,56.14,11.48,34.85,5.73,67.26-15.15,97.15Z"/><path class="cls-1" d="M314.92,108.77c-29.14-22.55-62.6-32.27-97.45-32.82-17.03,.2-32.21,2.03-47.05,6.24-28.61,8.11-53.43,22.44-72.92,45.22-16.61,19.41-26.13,41.83-27.2,67.46-.87,21.08,4.49,40.7,15.29,58.81,8.1,13.59,18.51,25.15,31.01,34.81,2.04,1.58,2.77,3.03,1.93,5.63-2.39,7.34-2.63,14.96-1.88,22.55,1.14,11.73,5.23,22.28,13.83,30.7,11.79,11.55,28.13,11.58,39.97,.15,4.8-4.64,8.23-10.15,10.58-16.37,.47-1.25,.91-2.52,1.48-3.72,.34-.73,.96-.67,1.29,.03,.44,.94,.76,1.93,1.11,2.91,2.28,6.28,5.86,11.68,10.82,16.16,10.72,9.68,26.15,10.55,37.86,2.11,6.24-4.5,10.38-10.54,13.2-17.62,.56-1.39,.28-3.87,2.1-3.88,1.3,0,1.34,2.38,1.87,3.72,3.13,7.9,7.55,14.86,14.59,19.87,9.99,7.11,22.08,7.1,32.11,.03,6.15-4.33,10.38-10.19,13.36-16.99,5.46-12.45,6.38-25.34,2.89-38.43-.91-3.44-.3-5.42,2.47-7.58,9.45-7.35,17.78-15.88,24.64-25.71,20.88-29.89,26.63-62.3,15.15-97.15-7.59-23.03-22.02-41.4-41.06-56.14Zm-25.11,126.87c-10.97,12.42-24.83,20.23-40.5,25.06-10.9,3.36-22.07,4.9-33.47,4.86-19.28-.08-37.52-4.27-54.26-14.05-12.22-7.13-22.24-16.5-28.46-29.42-7.72-16.02-7.27-31.97,1.12-47.6,7.31-13.62,18.68-23.06,32.27-29.88,18.56-9.31,38.27-12.65,58.94-10.97,16.29,1.32,31.58,5.73,45.67,14.1,7.75,4.6,14.63,10.26,20.3,17.3,17.65,21.9,17.02,49.53-1.61,70.6Z"/><rect class="cls-3" x="-238.14" y="-2443.24" width="6973.76" height="3570.53"/></svg>