<?xml version="1.0" encoding="UTF-8"?><svg id="Layer_1" xmlns="http://www.w3.org/2000/svg" viewBox="0 0 432 432"><defs><style>.cls-1{fill:#fff;}.cls-2{fill:#c8b686;}.cls-3{fill:none;stroke:#fff;stroke-miterlimit:10;stroke-width:2.16px;}</style></defs><path class="cls-2" d="M216,0C96.71,0,0,96.71,0,216s96.71,216,216,216,216-96.71,216-216S335.29,0,216,0Zm-84.6,305.08l-65.46-21.4s-.07-.06-.07-.1v-66.83s0-.05,.02-.07l97.87-118.07s.05-.04,.08-.04h129.61c.06,0,.12,.06,.1,.12l-15.69,105.29s-.02,.06-.04,.07l-146.32,101.02s-.06,.02-.09,.01Zm184.04-32.21l-85.14,61.08s-.06,.02-.1,.01l-71.52-23.43,124.72-85.33s.12-.02,.15,.03l31.92,47.5s.02,.11-.03,.15Zm50.67-38.28l-31.76,24.79s-.12,.03-.15-.02l-36.48-49.69s-.02-.05-.02-.08l19.12-111.47c0-.05,.05-.09,.1-.09h6.05s.09,.03,.1,.07l43.07,136.37s0,.09-.04,.12Z"/><path class="cls-1" d="M277.86,203.98l15.69-105.29c.01-.06-.04-.12-.1-.12H163.84s-.06,.01-.08,.04l-97.87,118.07s-.02,.04-.02,.07v66.83s.03,.09,.07,.1l65.46,21.4s.07,0,.09-.01l146.32-101.02s.04-.04,.04-.07Z"/><path class="cls-1" d="M283.54,225.23s-.1-.06-.15-.03l-124.72,85.33,71.52,23.43s.07,0,.1-.01l85.14-61.08s.06-.1,.03-.15l-31.92-47.5Z"/><path class="cls-1" d="M322.96,98.03h-6.05c-.05,0-.1,.04-.1,.09l-19.12,111.47s0,.06,.02,.08l36.48,49.69s.1,.06,.15,.02l31.76-24.79s.05-.07,.04-.12l-43.07-136.37s-.06-.07-.1-.07Z"/><rect class="cls-3" x="-238.14" y="-1367.37" width="6973.76" height="3570.53"/></svg>