<?xml version="1.0" encoding="UTF-8"?><svg id="Layer_1" xmlns="http://www.w3.org/2000/svg" viewBox="0 0 432 432"><defs><style>.cls-1{fill:#fff;}.cls-2{fill:#5a8ea2;}.cls-3{fill:none;stroke:#fff;stroke-miterlimit:10;stroke-width:2.16px;}</style></defs><circle class="cls-2" cx="216.02" cy="215.79" r="68.52" transform="translate(-14.75 15.86) rotate(-4.07)"/><path class="cls-2" d="M216,0C96.71,0,0,96.71,0,216s96.71,216,216,216,216-96.71,216-216S335.29,0,216,0Zm147.9,215.97l-73.58,126.97c-.04,.07-.11,.11-.19,.11H142.68c-.08,0-.15-.04-.18-.1l-74.4-126.97c-.04-.07-.04-.15,0-.22l74.4-127.11c.04-.07,.11-.1,.18-.1h147.46c.08,0,.15,.04,.19,.11l73.58,127.11c.04,.07,.04,.15,0,.22Z"/><path class="cls-1" d="M290.14,88.54H142.68c-.07,0-.15,.04-.18,.1l-74.4,127.11c-.04,.07-.04,.15,0,.22l74.4,126.97c.04,.07,.11,.1,.18,.1h147.46c.08,0,.15-.04,.19-.11l73.58-126.97c.04-.07,.04-.15,0-.22l-73.58-127.11c-.04-.07-.11-.11-.19-.11Zm-74.11,195.77c-37.84,0-68.52-30.68-68.52-68.52s30.68-68.52,68.52-68.52,68.52,30.68,68.52,68.52-30.68,68.52-68.52,68.52Z"/><rect class="cls-3" x="-238.14" y="-829.44" width="6973.76" height="3570.53"/></svg>