<?xml version="1.0" encoding="UTF-8"?><svg id="Layer_1" xmlns="http://www.w3.org/2000/svg" viewBox="0 0 432 432"><defs><style>.cls-1{fill:#fefefe;}.cls-2{fill:#3692dc;}.cls-3{fill:none;stroke:#fff;stroke-miterlimit:10;stroke-width:2.16px;}</style></defs><path class="cls-2" d="M268.63,272.38c-1.96-.42-2.09,2.3-2.9,3.7-10.31,17.8-25.71,27.7-46.21,28.51-31.89,1.26-57.06-24.8-56.35-55.24,.03-1.18,.09-2.37,.06-3.55,0-.39-.13-.96-.4-1.13-.67-.42-1.05,.22-1.39,.66-.45,.58-.88,1.19-1.26,1.82-10.78,18.02-11.79,36.52-1.31,54.8,11.27,19.67,29.12,28.65,51.46,29.29,10.63,.05,20.68-2.22,29.83-7.56,17.89-10.44,28.17-25.76,29.03-46.82,.06-1.56,.68-4.23-.54-4.49Z"/><path class="cls-2" d="M216,0C96.71,0,0,96.71,0,216s96.71,216,216,216,216-96.71,216-216S335.29,0,216,0Zm78.98,326.96c-18.73,22.31-43.02,34.25-72.07,36.46-2.36,.18-4.72,.33-5.96,.41-51.93-.6-91.97-35.67-101.93-81.36-4.5-20.66-2.55-40.84,5-60.64,11.55-30.31,26.77-58.71,44-86.09,15.06-23.94,30.39-47.71,45.59-71.56,1.75-2.75,3.42-5.54,5.12-8.33,.88-1.45,1.73-1.43,2.6,0,.23,.38,.47,.76,.7,1.14,16.27,26.86,34,52.79,50.5,79.5,14.97,24.21,28.87,48.99,39.52,75.46,4.2,10.44,8.45,20.86,10.08,32.12,4.48,31.05-2.99,58.88-23.14,82.9Z"/><path class="cls-1" d="M308.05,211.94c-10.66-26.47-24.55-51.25-39.52-75.46-16.51-26.71-34.23-52.64-50.5-79.5-.23-.38-.47-.76-.7-1.14-.87-1.42-1.72-1.44-2.6,0-1.69,2.78-3.37,5.58-5.12,8.33-15.2,23.85-30.53,47.62-45.59,71.56-17.22,27.38-32.45,55.78-44,86.09-7.54,19.8-9.5,39.99-5,60.64,9.96,45.69,50,80.76,101.93,81.36,1.24-.08,3.6-.23,5.96-.41,29.05-2.21,53.34-14.15,72.07-36.46,20.16-24.02,27.62-51.85,23.14-82.9-1.62-11.26-5.87-21.68-10.08-32.12Zm-38.88,64.93c-.86,21.06-11.14,36.37-29.03,46.82-9.15,5.34-19.19,7.61-29.83,7.56-22.33-.64-40.19-9.63-51.46-29.29-10.48-18.28-9.47-36.79,1.31-54.8,.38-.63,.81-1.24,1.26-1.82,.35-.44,.72-1.08,1.39-.66,.27,.17,.39,.74,.4,1.13,.02,1.18-.04,2.37-.06,3.55-.71,30.44,24.46,56.5,56.35,55.24,20.5-.81,35.91-10.71,46.21-28.51,.81-1.39,.94-4.12,2.9-3.7,1.22,.26,.6,2.93,.54,4.49Z"/><rect class="cls-3" x="-238.14" y="-291.51" width="6973.76" height="3570.53"/></svg>