<?xml version="1.0" encoding="UTF-8"?><svg id="Layer_1" xmlns="http://www.w3.org/2000/svg" viewBox="0 0 432 432"><defs><style>.cls-1{fill:#fff;}.cls-2{fill:#5b5466;}.cls-3{fill:none;stroke:#fff;stroke-miterlimit:10;stroke-width:2.16px;}</style></defs><path class="cls-2" d="M216,0C96.71,0,0,96.71,0,216s96.71,216,216,216,216-96.71,216-216S335.29,0,216,0Zm0,353.42c-75.9,0-137.42-61.52-137.42-137.42S140.1,78.58,216,78.58s137.42,61.52,137.42,137.42-61.52,137.42-137.42,137.42Z"/><path class="cls-2" d="M199.63,107.36c-4.69,0-9.31,.22-13.86,.66,34.65,22.89,57.55,62.53,57.55,107.61,0,47.39-25.32,88.77-62.98,111,6.29,.84,12.73,1.28,19.29,1.28,69.84,0,126.46-49.37,126.46-110.27s-56.62-110.27-126.46-110.27Z"/><path class="cls-1" d="M216,78.58c-75.9,0-137.42,61.52-137.42,137.42s61.52,137.42,137.42,137.42,137.42-61.52,137.42-137.42-61.52-137.42-137.42-137.42Zm-16.37,249.32c-6.56,0-13-.44-19.29-1.28,37.66-22.22,62.98-63.61,62.98-111,0-45.07-22.91-84.72-57.55-107.61,4.55-.43,9.18-.66,13.86-.66,69.84,0,126.46,49.37,126.46,110.27s-56.62,110.27-126.46,110.27Z"/><rect class="cls-3" x="-1300.19" y="-2443.24" width="6973.76" height="3570.53"/></svg>