<?xml version="1.0" encoding="UTF-8"?><svg id="Layer_1" xmlns="http://www.w3.org/2000/svg" viewBox="0 0 432 432"><defs><style>.cls-1{fill:#006fc9;}.cls-2{fill:#fefefe;}.cls-3{fill:none;stroke:#fff;stroke-miterlimit:10;stroke-width:2.16px;}</style></defs><path class="cls-1" d="M169.74,149.23c-.07-.61-.26-1.21-.41-1.81-.29-1.16-.97-1.51-2.02-.91-.67,.38-1.33,.8-1.96,1.25-14.62,10.23-26.66,23.06-37.32,37.25-1.64,2.18-1.3,2.75,1.63,2.83,12.26,.3,23.19-3.31,32.52-11.38,6.03-5.22,8.65-11.92,8.34-19.84-.26-2.46-.5-4.93-.79-7.39Z"/><path class="cls-1" d="M216,0C96.71,0,0,96.71,0,216s96.71,216,216,216,216-96.71,216-216S335.29,0,216,0Zm-2.81,365.22c-.05,.11-.86-.11-1.33-.18-1.23-.18-2.46-.35-3.69-.53-12.34-1.38-24.59-3.27-36.53-6.82-19.15-5.7-35.32-16.38-50.04-29.59-20.85-18.72-33.98-42.05-41.46-68.79-.83-2.97-.8-3.04,2.37-3.34,19.94-1.92,39.68-5.01,59.08-10.12,11.41-3.01,22.57-6.77,33.53-11.14,1.44-.57,2.89-1.13,4.35-1.64,.25-.09,.64-.05,.87,.09,.53,.31,.32,.78,.09,1.17-.55,.94-1.15,1.84-1.71,2.77-1.76,2.92-3.56,5.82-5.25,8.79-8.62,15.05-10.75,31.11-7.92,48.1,3.9,23.47,14.91,42.84,32.9,58.31,4.59,3.94,9.24,7.81,13.84,11.75,.37,.32,1.21,.42,.89,1.18Zm78.03-14.88c-7.9,4.68-16.22,8.45-24.89,11.49-2.54,.89-4.69,.68-7.12-.39-10.65-4.72-19.75-11.68-28.34-19.36-9.65-8.63-18.17-18.26-25.15-29.2-.58-.92-1.15-1.84-1.7-2.78-.71-1.21-.87-1.94,1.06-1.85,3.09,.15,6.2,.04,9.3,.04,26.51,.28,46.4-11.14,58.3-34.89,14.78-29.5,3.14-65.56-25.76-81.75-.68-.38-1.33-.83-2.06-1.08-2.62-.9-3.44-2.56-3.03-5.36,.46-3.05,.45-6.19,.43-9.29-.04-8.45-3.45-15.64-8.57-22.15-.27-.35-.65-.61-.98-.92-.33,.47-.05,.88,.15,1.26,4.22,7.99,4.64,16.62,4.39,25.39-.11,3.67-1.23,6.99-2.84,10.22-2.14,4.31-5.28,6.71-10.31,7.58-28.76,4.96-57.07,12.02-85.36,19.12-19.71,4.95-39.52,9.52-59.28,14.25-.75,.18-1.51,.4-2.28,.48-.41,.04-1.09-.04-1.2-.28-.15-.33,.03-.9,.22-1.29,.34-.69,.79-1.33,1.21-1.99,15.41-24.08,29.23-49.07,42.54-74.35,1.64-3.12,3.79-5.48,6.67-7.52,22.83-16.13,45.38-32.62,66.58-50.89,17.47-15.06,33.24-31.71,47.4-49.9,.67-.86,1.33-1.72,2.02-2.55,.18-.22,.49-.52,.7-.5,.64,.08,.49,.62,.41,1.04-.22,1.22-.47,2.44-.71,3.65-3.54,18.47-10.52,35.66-19.35,52.18-3.31,6.19-3.2,6.19,3.89,6.38,56.93,1.48,106.58,39.33,122.92,93.95,17.47,58.41-7.05,120.3-59.28,151.25Z"/><path class="cls-2" d="M227.57,105.14c-7.09-.19-7.2-.18-3.89-6.38,8.83-16.52,15.81-33.71,19.35-52.18,.23-1.22,.48-2.43,.71-3.65,.08-.42,.23-.96-.41-1.04-.21-.03-.52,.28-.7,.5-.69,.84-1.36,1.7-2.02,2.55-14.16,18.19-29.93,34.84-47.4,49.9-21.2,18.27-43.75,34.76-66.58,50.89-2.88,2.04-5.03,4.4-6.67,7.52-13.31,25.28-27.13,50.27-42.54,74.35-.42,.65-.87,1.29-1.21,1.99-.19,.39-.37,.95-.22,1.29,.1,.23,.79,.32,1.2,.28,.77-.08,1.52-.3,2.28-.48,19.76-4.74,39.57-9.3,59.28-14.25,28.29-7.1,56.6-14.16,85.36-19.12,5.02-.87,8.16-3.27,10.31-7.58,1.61-3.23,2.73-6.55,2.84-10.22,.26-8.77-.16-17.4-4.39-25.39-.2-.38-.49-.8-.15-1.26,.33,.3,.7,.57,.98,.92,5.12,6.5,8.53,13.7,8.57,22.15,.01,3.1,.02,6.24-.43,9.29-.42,2.8,.41,4.46,3.03,5.36,.72,.25,1.38,.7,2.06,1.08,28.9,16.2,40.54,52.25,25.76,81.75-11.9,23.76-31.79,35.17-58.3,34.89-3.1,0-6.21,.11-9.3-.04-1.92-.09-1.77,.64-1.06,1.85,.55,.94,1.11,1.86,1.7,2.78,6.98,10.94,15.51,20.58,25.15,29.2,8.58,7.68,17.69,14.64,28.34,19.36,2.43,1.07,4.58,1.28,7.12,.39,8.67-3.04,16.98-6.81,24.89-11.49,52.22-30.95,76.75-92.84,59.28-151.25-16.34-54.62-65.99-92.47-122.92-93.95Zm-65.38,71.32c-9.33,8.07-20.26,11.68-32.52,11.38-2.93-.07-3.27-.65-1.63-2.83,10.66-14.19,22.7-27.02,37.32-37.25,.63-.44,1.29-.86,1.96-1.25,1.06-.6,1.74-.25,2.02,.91,.15,.6,.34,1.2,.41,1.81,.28,2.46,.53,4.93,.79,7.39,.31,7.92-2.31,14.62-8.34,19.84Z"/><path class="cls-2" d="M212.3,364.03c-4.6-3.93-9.25-7.81-13.84-11.75-18-15.46-29-34.83-32.9-58.31-2.83-16.99-.7-33.06,7.92-48.1,1.69-2.96,3.5-5.86,5.25-8.79,.56-.93,1.16-1.84,1.71-2.77,.23-.39,.44-.87-.09-1.17-.24-.14-.62-.18-.87-.09-1.46,.52-2.91,1.07-4.35,1.64-10.96,4.37-22.11,8.13-33.53,11.14-19.4,5.11-39.14,8.21-59.08,10.12-3.17,.3-3.2,.37-2.37,3.34,7.49,26.75,20.61,50.07,41.46,68.79,14.72,13.21,30.89,23.9,50.04,29.59,11.94,3.55,24.18,5.44,36.53,6.82,1.23,.18,2.46,.35,3.69,.53,.46,.07,1.28,.29,1.33,.18,.32-.76-.52-.86-.89-1.18Z"/><rect class="cls-3" x="-1300.19" y="-1905.31" width="6973.76" height="3570.53"/></svg>