<?xml version="1.0" encoding="UTF-8"?><svg id="Layer_1" xmlns="http://www.w3.org/2000/svg" viewBox="0 0 432 432"><defs><style>.cls-1{fill:#fefefe;}.cls-2{fill:#e0306a;}.cls-3{fill:none;stroke:#fff;stroke-miterlimit:10;stroke-width:2.16px;}</style></defs><path class="cls-2" d="M216,432c119.29,0,216-96.71,216-216S335.29,0,216,0,0,96.71,0,216s96.71,216,216,216ZM125.2,126.2c.24-4.41,2.53-6.76,6.94-6.92,3.26-.11,6.52-.03,9.78-.04,5.39,0,10.78,.23,16.16-.05,8.52-.44,10.18,3.11,10.09,9.87-.21,16.02-.07,32.03-.07,48.05,0,3.4-.05,6.81,.02,10.21,.12,5.73,2.09,7.68,7.68,7.76,1.13,.02,2.27,.04,3.4-.02,4.03-.22,6.22-2.34,6.32-6.45,.13-4.96,.04-9.92,.04-14.88,0-14.6,0-29.2,0-43.8,0-1.13-.02-2.27,.02-3.4,.18-4.87,2.48-7.16,7.46-7.26,4.11-.08,8.22-.02,12.33-.02,5.1,0,10.21-.04,15.31,.02,5.47,.06,7.72,2.26,7.73,7.79,.05,19.28,.02,38.56,.03,57.83,0,1.56-.06,3.14,.16,4.67,.48,3.33,2.62,5.26,6.02,5.48,1.83,.12,3.69,.12,5.52,0,3.59-.23,5.7-2.27,6.1-5.86,.16-1.4,.11-2.83,.11-4.25,0-18.43,0-36.85,0-55.28,0-1.13-.02-2.27,.01-3.4,.14-5.33,2.47-7.71,7.9-7.75,8.93-.08,17.86-.08,26.79,0,5.38,.05,7.72,2.45,7.73,7.88,.04,19.42,.02,38.84,.02,58.26,0,1.56-.07,3.13,.13,4.67,.47,3.61,2.58,5.54,6.22,5.73,1.84,.1,3.69,.11,5.53-.01,3.37-.23,5.48-2.2,5.93-5.56,.21-1.54,.15-3.11,.15-4.67,0-18.14,0-36.29,0-54.43,0-1.28-.02-2.55,.02-3.83,.17-5.01,2.32-7.23,7.35-7.27,9.35-.07,18.71-.08,28.07,0,4.94,.04,7.22,2.4,7.43,7.32,.04,.85,.01,1.7,.01,2.55-.06,58.97-.11,117.94-.17,176.9,0,1.42,.06,2.85-.09,4.25-.4,3.8-2.53,5.89-6.31,6.23-1.41,.13-2.83,.06-4.25,.06-33.88,0-67.76,0-101.64,0s-68.04-.08-102.06,.07c-6.77,.03-9.87-1.8-9.86-9.72,.08-59.39-.05-118.79-.11-178.18,0-.85-.02-1.7,.02-2.55Zm-55.38,98.02c7.44-14.32,14.89-28.65,22.18-43.04,1.55-3.05,3.65-4.51,7.02-4.34,1.98,.1,3.98-.08,5.94,.12,3.72,.38,5.86,2.61,6.22,6.34,.12,1.26,.07,2.55,.07,3.82,0,19.97,0,39.94,0,59.91-.06,0-.12,0-.18,0,0,19.69,0,39.37,0,59.06,0,1.56,.04,3.13-.13,4.67-.41,3.61-2.36,5.57-5.98,6.1-.98,.14-1.98,.06-2.96,.17-5.27,.58-8.5-1.42-10.94-6.45-6.67-13.75-13.92-27.23-21.02-40.77-1.28-2.45-2.03-4.9-2.01-7.68,.05-10.05,.02-20.11-.06-30.17-.02-2.77,.59-5.28,1.87-7.73Z"/><path class="cls-1" d="M125.28,306.93c-.01,7.92,3.08,9.75,9.86,9.72,34.02-.15,68.04-.07,102.06-.07s67.76,0,101.64,0c1.42,0,2.84,.07,4.25-.06,3.78-.34,5.91-2.43,6.31-6.23,.15-1.4,.09-2.83,.09-4.25,.06-58.97,.12-117.94,.17-176.9,0-.85,.02-1.7-.01-2.55-.21-4.92-2.49-7.27-7.43-7.32-9.35-.08-18.71-.08-28.07,0-5.04,.04-7.19,2.26-7.35,7.27-.04,1.27-.02,2.55-.02,3.83,0,18.14,0,36.29,0,54.43,0,1.56,.06,3.13-.15,4.67-.45,3.37-2.56,5.33-5.93,5.56-1.83,.12-3.69,.11-5.53,.01-3.64-.19-5.75-2.12-6.22-5.73-.2-1.54-.13-3.11-.13-4.67,0-19.42,.02-38.84-.02-58.26-.01-5.43-2.35-7.83-7.73-7.88-8.93-.09-17.86-.08-26.79,0-5.43,.05-7.76,2.42-7.9,7.75-.03,1.13-.01,2.27-.01,3.4,0,18.43,0,36.85,0,55.28,0,1.42,.05,2.84-.11,4.25-.4,3.59-2.52,5.63-6.1,5.86-1.83,.12-3.69,.12-5.52,0-3.4-.22-5.54-2.15-6.02-5.48-.22-1.53-.16-3.11-.16-4.67-.01-19.28,.02-38.56-.03-57.83-.01-5.53-2.26-7.73-7.73-7.79-5.1-.06-10.2-.02-15.31-.02-4.11,0-8.22-.06-12.33,.02-4.98,.1-7.28,2.39-7.46,7.26-.04,1.13-.02,2.27-.02,3.4,0,14.6,0,29.2,0,43.8,0,4.96,.08,9.93-.04,14.88-.1,4.11-2.29,6.23-6.32,6.45-1.13,.06-2.27,.04-3.4,.02-5.6-.08-7.57-2.03-7.68-7.76-.07-3.4-.02-6.8-.02-10.21,0-16.02-.15-32.04,.07-48.05,.09-6.76-1.57-10.31-10.09-9.87-5.37,.28-10.77,.05-16.16,.05-3.26,0-6.52-.08-9.78,.04-4.41,.15-6.7,2.51-6.94,6.92-.05,.85-.02,1.7-.02,2.55,.06,59.39,.19,118.79,.11,178.18Z"/><path class="cls-1" d="M68,262.11c-.01,2.79,.73,5.23,2.01,7.68,7.1,13.54,14.35,27.02,21.02,40.77,2.44,5.03,5.67,7.03,10.94,6.45,.98-.11,1.99-.03,2.96-.17,3.62-.53,5.57-2.49,5.98-6.1,.17-1.54,.13-3.11,.13-4.67,0-19.69,0-39.37,0-59.06,.06,0,.12,0,.18,0,0-19.97,0-39.94,0-59.91,0-1.27,.06-2.56-.07-3.82-.37-3.74-2.5-5.97-6.22-6.34-1.96-.2-3.96-.02-5.94-.12-3.37-.17-5.47,1.29-7.02,4.34-7.3,14.4-14.74,28.72-22.18,43.04-1.28,2.45-1.9,4.96-1.87,7.73,.08,10.06,.11,20.11,.06,30.17Z"/><rect class="cls-3" x="-1300.19" y="-291.51" width="6973.76" height="3570.53"/></svg>