<?xml version="1.0" encoding="UTF-8"?><svg id="Layer_1" xmlns="http://www.w3.org/2000/svg" viewBox="0 0 432 432"><defs><style>.cls-1{fill:#fefefe;}.cls-2{fill:#89aae3;}.cls-3{fill:none;stroke:#fff;stroke-miterlimit:10;stroke-width:2.16px;}</style></defs><path class="cls-2" d="M216,0C96.71,0,0,96.71,0,216s96.71,216,216,216,216-96.71,216-216S335.29,0,216,0Zm145.4,80.85c-.35,9.82-1.26,19.61-3.19,29.25-3.75,18.81-10.43,36.65-20.21,53.1-15.01,25.26-36.92,41.91-65.32,49.79-7.31,2.03-14.89,2.65-22.41,3.01-11.16,.53-22.35,.68-33.42-1.45-.59-.11-1.2-.15-1.8-.19-.42-.03-.91,0-.96,.53-.02,.22,.25,.56,.47,.7,.51,.31,1.07,.54,1.63,.77,17.51,7.37,35.61,11.5,54.73,9.85,12.09-1.05,23.9-3.44,35.18-8.07,6.5-2.67,12.38-6.28,17.2-11.48,.49-.52,1.14-.89,1.72-1.32,0-.02,0-.04,0-.06l.04,.03s-.03,.02-.04,.03c.07,1.59-.9,2.8-1.56,4.12-11.32,22.51-40.3,42.14-68.16,42.08-5.89-.01-11.78-.03-17.67-.37-.56-.03-1.53,.13-1.63,.44-.31,.93,.59,1.27,1.27,1.47,6.51,1.97,13.09,3.61,19.83,4.62,9.81,1.48,19.58,1.3,29.29-.69,10.01-2.05,18.55-7.03,26.45-13.32,1.18-.94,2.05-2.55,3.92-2.46-.68,1.34-1.31,2.69-2.03,4-9.79,17.87-25.49,26.78-45.12,29.7-5.39,.8-10.83,.95-16.27,1.01-1.21,.01-2.42,.02-3.62,.1-.4,.03-1.03,.1-.88,.73,.09,.37,.44,.8,.78,.96,.96,.43,1.97,.76,2.98,1.07,2.17,.66,4.35,1.25,6.51,1.93,2.31,.73,2.42,.88,1.38,3.2-3.81,8.45-8.73,16.22-14.79,23.24-15.57,18.06-35.09,29.47-58.58,33.48-54.97,9.39-104.83-26.85-114.74-79.1-10.02-52.86,22.78-103,75.08-115.46,7.67-1.83,15.47-2.58,23.36-2.56,15.41,.04,30.83,.34,46.22-.06,27.43-.71,54.45-4.41,80.77-12.47,7.81-2.39,15.35-5.49,22.48-9.52,11.92-6.75,21.45-16.11,29.47-27.08,3.39-4.63,6.52-9.45,9.78-14.17,.32-.46,.61-1.18,1.34-.9,.69,.26,.53,.99,.51,1.55Z"/><path class="cls-1" d="M360.89,79.3c-.74-.28-1.03,.44-1.34,.9-3.26,4.72-6.39,9.54-9.78,14.17-8.02,10.97-17.55,20.34-29.47,27.08-7.13,4.04-14.67,7.13-22.48,9.52-26.32,8.06-53.34,11.76-80.77,12.47-15.4,.4-30.82,.1-46.22,.06-7.89-.02-15.69,.73-23.36,2.56-52.31,12.45-85.1,62.6-75.08,115.46,9.9,52.26,59.76,88.49,114.74,79.1,23.49-4.01,43.01-15.42,58.58-33.48,6.06-7.02,10.98-14.79,14.79-23.24,1.04-2.31,.93-2.46-1.38-3.2-2.16-.68-4.34-1.27-6.51-1.93-1.01-.31-2.02-.64-2.98-1.07-.34-.15-.69-.59-.78-.96-.15-.63,.48-.7,.88-.73,1.2-.08,2.41-.09,3.62-.1,5.44-.06,10.88-.2,16.27-1.01,19.64-2.92,35.33-11.83,45.12-29.7,.72-1.31,1.36-2.67,2.03-4-1.87-.09-2.73,1.52-3.92,2.46-7.9,6.29-16.44,11.27-26.45,13.32-9.71,1.99-19.48,2.17-29.29,.69-6.73-1.02-13.32-2.65-19.83-4.62-.68-.2-1.58-.55-1.27-1.47,.1-.3,1.07-.47,1.63-.44,5.88,.34,11.77,.36,17.67,.37,27.86,.06,56.84-19.57,68.16-42.08,.66-1.32,1.63-2.52,1.56-4.12-.58,.43-1.24,.8-1.72,1.32-4.82,5.2-10.7,8.81-17.2,11.48-11.28,4.63-23.08,7.02-35.18,8.07-19.12,1.65-37.22-2.48-54.73-9.85-.55-.23-1.11-.46-1.63-.77-.23-.14-.5-.48-.47-.7,.05-.53,.54-.55,.96-.53,.6,.04,1.21,.08,1.8,.19,11.07,2.13,22.26,1.98,33.42,1.45,7.53-.36,15.1-.98,22.41-3.01,28.39-7.87,50.3-24.53,65.32-49.79,9.78-16.45,16.46-34.29,20.21-53.1,1.92-9.63,2.83-19.42,3.19-29.25,.02-.56,.18-1.29-.51-1.55Z"/><path class="cls-1" d="M325.02,205.27s0,.04,0,.06c.01,0,.03-.02,.04-.03l-.04-.03Z"/><rect class="cls-3" x="-771.91" y="-2443.24" width="6973.76" height="3570.53"/></svg>