<?xml version="1.0" encoding="UTF-8"?><svg id="Layer_1" xmlns="http://www.w3.org/2000/svg" viewBox="0 0 432 432"><defs><style>.cls-1{fill:#fefefe;}.cls-2{fill:#38bf4b;}.cls-3{fill:none;stroke:#fff;stroke-miterlimit:10;stroke-width:2.16px;}</style></defs><path class="cls-2" d="M216,0C96.71,0,0,96.71,0,216s96.71,216,216,216,216-96.71,216-216S335.29,0,216,0Zm119.63,207.15c-.5,18.27-2.02,36.45-7.05,54.14-4.58,16.11-11.59,31.18-21.17,44.84-15.56,22.19-37.06,36.35-63.04,43.38-29.2,7.9-57.78,5.54-85.39-7.06-.95-.43-1.89-.9-2.81-1.39-.82-.43-.9-1.14-.51-1.89,.42-.79,.91-1.54,1.39-2.3,5.92-9.53,11.91-19.02,17.72-28.61,1.45-2.4,3.18-3.48,5.99-3.9,21-3.16,41.96-6.52,62.94-9.83,7.83-1.23,15.66-2.47,23.48-3.74,1.47-.24,2.97-.52,4.34-1.06,2.2-.86,3.55-2.9,3.39-4.81-.19-2.23-1.67-3.39-3.56-4.2-1.71-.73-3.52-.61-5.31-.61-11.52,0-23.05,0-34.57,0,0,0,0,.03,0,.04h-33.67c-1.05,0-2.1,0-3.14-.02-1.31-.02-2.13-.37-1.2-1.86,.48-.76,.95-1.52,1.42-2.29,9.33-14.98,18.7-29.95,27.96-44.98,1.52-2.46,3.17-3.79,6.28-4.11,18.45-1.91,36.86-4.1,55.29-6.21,1.04-.12,2.1-.25,3.08-.57,2.26-.75,3.52-2.34,3.48-4.16-.04-1.8-1.36-3.47-3.54-4.16-1.42-.45-2.91-.69-4.39-.87-12.92-1.57-25.84-3.11-38.77-4.65-6.6-.79-5.23-1.12-2.71-5.15,12.38-19.79,24.78-39.56,37.16-59.35,.87-1.39,1.71-2.81,2.5-4.25,.66-1.19,1.07-2.49,1-3.87-.17-3.42-2.93-5.04-5.97-3.48-1.9,.97-3.3,2.55-4.74,4.08-16.12,17.09-32.24,34.18-48.37,51.27-4.57,4.84-4,4.72-6.38-1.29-4.68-11.82-9.32-23.66-14-35.48-.55-1.39-1.1-2.8-1.86-4.07-1.31-2.2-3.44-3.24-5.17-2.76-1.78,.49-3.06,2.49-3.06,4.99,0,1.04,.18,2.09,.33,3.12,2.58,17.91,5.13,35.82,7.78,53.72,.49,3.32-.13,5.84-2.63,8.41-12.1,12.45-23.95,25.13-35.89,37.73-.62,.65-1.21,1.33-1.86,1.95-1.68,1.6-1.9,1.6-2.5-.65-3.25-12.13-6.46-24.28-9.64-36.43-2.88-10.99-5.7-22-8.55-33-.53-2.04-1.08-4.05-2.78-5.51-2.57-2.2-5.58-1.49-6.87,1.66-.65,1.59-.46,3.23-.31,4.87,1.11,11.46,2.22,22.93,3.31,34.39,1.34,14,2.66,27.99,3.98,41.99,.41,4.32,.69,8.65,1.2,12.95,.23,1.95-.19,3.39-1.57,4.83-8.59,8.97-17.09,18.03-25.65,27.02-2.21,2.32-2.32,2.32-4.42-.1-12.41-14.27-20.98-30.6-25.21-49-8.24-35.79-2.76-69.25,18.1-99.79,9.35-13.68,21.6-24.22,35.75-32.84,25.07-15.27,52.23-25.03,80.63-31.78,21.71-5.16,43.6-9.22,65.84-11.19,12.07-1.07,24.19-1.53,36.32-1.34,3.32,.05,3.37,.07,4.23,3.31,3.22,12.15,5.9,24.42,7.87,36.84,4.69,29.49,6.31,59.19,5.51,89.01Z"/><path class="cls-1" d="M322.25,81.3c-.86-3.24-.91-3.26-4.23-3.31-12.13-.19-24.25,.27-36.32,1.34-22.23,1.97-44.13,6.03-65.84,11.19-28.41,6.75-55.56,16.51-80.63,31.78-14.15,8.62-26.4,19.15-35.75,32.84-20.86,30.54-26.34,64-18.1,99.79,4.23,18.4,12.8,34.73,25.21,49,2.1,2.42,2.22,2.42,4.42,.1,8.56-9,17.06-18.05,25.65-27.02,1.38-1.44,1.81-2.88,1.57-4.83-.52-4.3-.8-8.63-1.2-12.95-1.32-14-2.65-27.99-3.98-41.99-1.1-11.47-2.2-22.93-3.31-34.39-.16-1.64-.35-3.29,.31-4.87,1.29-3.15,4.3-3.87,6.87-1.66,1.7,1.46,2.26,3.47,2.78,5.51,2.85,11,5.67,22.01,8.55,33,3.18,12.15,6.39,24.3,9.64,36.43,.6,2.25,.82,2.25,2.5,.65,.65-.62,1.24-1.3,1.86-1.95,11.94-12.6,23.79-25.28,35.89-37.73,2.51-2.58,3.12-5.09,2.63-8.41-2.65-17.9-5.2-35.81-7.78-53.72-.15-1.04-.33-2.08-.33-3.12,0-2.5,1.28-4.5,3.06-4.99,1.73-.48,3.86,.56,5.17,2.76,.76,1.27,1.31,2.68,1.86,4.07,4.68,11.82,9.33,23.65,14,35.48,2.38,6,1.81,6.13,6.38,1.29,16.13-17.09,32.25-34.17,48.37-51.27,1.44-1.53,2.84-3.11,4.74-4.08,3.04-1.56,5.8,.06,5.97,3.48,.07,1.38-.35,2.67-1,3.87-.79,1.44-1.63,2.86-2.5,4.25-12.38,19.78-24.78,39.56-37.16,59.35-2.52,4.03-3.9,4.36,2.71,5.15,12.92,1.54,25.85,3.08,38.77,4.65,1.48,.18,2.98,.42,4.39,.87,2.18,.69,3.5,2.36,3.54,4.16,.04,1.82-1.22,3.42-3.48,4.16-.98,.32-2.04,.45-3.08,.57-18.43,2.11-36.84,4.3-55.29,6.21-3.11,.32-4.76,1.65-6.28,4.11-9.26,15.03-18.63,30-27.96,44.98-.47,.76-.94,1.53-1.42,2.29-.93,1.48-.11,1.83,1.2,1.86,1.05,.02,2.09,.02,3.14,.02h33.67s0-.04,0-.04c11.52,0,23.05,0,34.57,0,1.79,0,3.6-.12,5.31,.61,1.89,.81,3.37,1.97,3.56,4.2,.16,1.9-1.18,3.95-3.39,4.81-1.38,.54-2.88,.82-4.34,1.06-7.82,1.27-15.65,2.51-23.48,3.74-20.98,3.3-41.94,6.66-62.94,9.83-2.81,.42-4.54,1.5-5.99,3.9-5.81,9.6-11.8,19.08-17.72,28.61-.47,.76-.97,1.51-1.39,2.3-.39,.75-.31,1.46,.51,1.89,.93,.49,1.86,.96,2.81,1.39,27.62,12.59,56.2,14.96,85.39,7.06,25.98-7.03,47.48-21.19,63.04-43.38,9.58-13.66,16.58-28.73,21.17-44.84,5.03-17.7,6.56-35.87,7.05-54.14,.81-29.82-.82-59.52-5.51-89.01-1.97-12.42-4.65-24.69-7.87-36.84Z"/><rect class="cls-3" x="-771.91" y="-1367.37" width="6973.76" height="3570.53"/></svg>