<?xml version="1.0" encoding="UTF-8"?><svg id="Layer_1" xmlns="http://www.w3.org/2000/svg" viewBox="0 0 432 432"><defs><style>.cls-1{fill:#fff;}.cls-2{fill:#4cd1c0;}.cls-3{fill:none;stroke:#fff;stroke-miterlimit:10;stroke-width:2.16px;}</style></defs><path class="cls-2" d="M216,0C96.71,0,0,96.71,0,216s96.71,216,216,216,216-96.71,216-216S335.29,0,216,0Zm-7.38,309.45l-77.15,40.61v-81.74h.02l75.45-37.56,1.1-.55,.59-.29v79.52Zm-77.15-55.96l-77.16-37.44,77.16-37.55,77.15,37.54-77.15,37.45Zm77.15-51.43l-.59-.29-1.1-.55-75.45-37.54h-.02V81.94l77.15,40.61v79.52Zm14.77-79.52l77.15-40.61v81.74h-.02l-75.45,37.56-1.1,.55-.59,.29V122.55Zm77.15,227.52l-77.15-40.61v-79.52l.59,.29,1.1,.55,75.45,37.54h.02v81.75Zm0-96.57l-77.15-37.45,77.15-37.54,77.16,37.55-77.16,37.44Z"/><polygon class="cls-1" points="54.31 216.05 131.46 253.5 208.62 216.04 131.46 178.5 54.31 216.05"/><polygon class="cls-1" points="223.38 216.04 300.54 253.5 377.69 216.05 300.54 178.5 223.38 216.04"/><polygon class="cls-1" points="225.07 201.23 300.52 163.68 300.52 163.68 300.54 163.67 300.54 81.94 223.38 122.55 223.38 202.06 223.97 201.77 225.07 201.23"/><polygon class="cls-1" points="300.52 268.32 225.07 230.77 223.97 230.23 223.38 229.94 223.38 309.45 300.54 350.06 300.54 268.33 300.52 268.32 300.52 268.32"/><polygon class="cls-1" points="131.46 163.67 131.48 163.68 131.48 163.68 206.93 201.23 208.03 201.77 208.62 202.06 208.62 122.55 131.46 81.94 131.46 163.67"/><polygon class="cls-1" points="206.93 230.77 131.48 268.32 131.48 268.32 131.46 268.33 131.46 350.06 208.62 309.45 208.62 229.94 208.03 230.23 206.93 230.77"/><rect class="cls-3" x="-771.91" y="-291.51" width="6973.76" height="3570.53"/></svg>