<?xml version="1.0" encoding="UTF-8"?><svg id="Layer_1" xmlns="http://www.w3.org/2000/svg" viewBox="0 0 432 432"><defs><style>.cls-1{fill:#fff;}.cls-2{fill:#919aa2;}.cls-3{fill:none;stroke:#fff;stroke-miterlimit:10;stroke-width:2.16px;}</style></defs><path class="cls-2" d="M216,0C96.71,0,0,96.71,0,216s96.71,216,216,216,216-96.71,216-216S335.29,0,216,0Zm.52,361.52c-74.61,0-135-60.39-135-135S141.91,91.52,216.52,91.52s135,60.4,135,135-60.39,135-135,135Z"/><path class="cls-2" d="M216.64,140.65c-47.08,0-85.26,38.45-85.26,85.26s37.92,85.26,85,85.26,85.26-38.19,85.26-85.26-37.92-85.26-85-85.26Z"/><path class="cls-1" d="M216.52,91.52c-74.61,0-135,60.4-135,135s60.39,135,135,135,135-60.39,135-135-60.39-135-135-135Zm-.13,219.66c-47.08,0-85-38.45-85-85.26s38.19-85.26,85.26-85.26,85,38.19,85,85.26-38.19,85.26-85.26,85.26Z"/><rect class="cls-3" x="-238.14" y="-2981.18" width="6973.76" height="3570.53"/></svg>