<?xml version="1.0" encoding="UTF-8"?><svg id="Layer_1" xmlns="http://www.w3.org/2000/svg" viewBox="0 0 432 432"><defs><style>.cls-1{fill:#fefefe;}.cls-2{fill:#ff6675;}.cls-3{fill:none;stroke:#fff;stroke-miterlimit:10;stroke-width:2.16px;}</style></defs><path class="cls-2" d="M216,0C96.71,0,0,96.71,0,216s96.71,216,216,216,216-96.71,216-216S335.29,0,216,0Zm108.28,244.28c-4.6,8.97-11.31,16.13-18.63,22.8-13.42,12.23-28.85,20.82-46.83,23.97-26.4,4.62-50.27-.99-70.46-19.22-12.81-11.56-20.05-26.16-22.33-43.27-1.45-10.88-.8-21.64,2.85-31.95,7.55-21.28,22.99-33.91,44.8-38.54,13.55-2.88,26.77-1.33,38.79,6.2,12.77,8.01,19.8,19.95,21.8,34.58,2.47,18.01-10.75,35.76-28.85,39.75-5.35,1.18-10.68,1.29-16.03,0-10.32-2.48-18.7-11.45-20.33-21.86-.63-3.98,.04-7.89,1.01-11.72,.62-2.44,2.32-3.39,4.39-2.9,1.98,.48,3.18,2.2,2.82,4.52-.29,1.84-.46,3.66-.24,5.5,1.23,10.08,9.87,16.14,20.29,14.25,.26-.05,.51-.12,.77-.18,18.15-3.8,19.92-22.54,13.58-33.24-4.51-7.6-11.43-11.84-19.94-13.57-17.26-3.5-31.6,7.3-36.97,19.92-6.74,15.84-4.03,30.49,7.1,43.4,15.24,17.66,41.29,21.92,61.91,10.3,17.54-9.89,28.2-24.84,30.79-44.8,2.59-19.89-2.56-37.57-16.15-52.95-12.22-13.83-27.38-21.69-45.17-24.53-44.03-7.03-81,15.6-96.85,54.38-6.55,16.02-8.54,32.74-6.67,49.95,2.85,26.28,13.59,48.76,32.6,67.1,16.73,16.14,36.66,26.37,59.57,30.5,34.47,6.23,66.98,.07,97.88-15.87,1.38-.71,2.63-1.82,4.35-1.65l.05,.05c-1.29,1.91-3.3,2.99-5.11,4.26-18.74,13.18-39.55,21.18-62.09,24.99-12.13,2.06-24.33,2.72-36.58,2.12-28.28-1.39-54.77-8.6-78.36-24.84-26.47-18.23-43.02-43.18-50.22-74.43-2.98-12.92-3.95-26.04-3.09-39.22,1.49-22.94,7.31-44.7,19.78-64.22,16.13-25.24,38.74-42.29,67.23-51.54,16.3-5.29,33.03-7.81,50.15-7.01,26.22,1.22,50.05,9.32,70.8,25.68,16.3,12.85,27.29,29.49,33.77,49.06,9.56,28.86,7.78,56.98-6.19,84.21Z"/><path class="cls-1" d="M296.7,111.02c-20.75-16.36-44.57-24.45-70.8-25.68-17.13-.8-33.85,1.72-50.15,7.01-28.49,9.25-51.1,26.3-67.23,51.54-12.47,19.51-18.29,41.27-19.78,64.22-.86,13.19,.12,26.3,3.09,39.22,7.2,31.25,23.74,56.2,50.22,74.43,23.58,16.24,50.08,23.45,78.36,24.84,12.25,.6,24.45-.06,36.58-2.12,22.53-3.82,43.35-11.82,62.09-24.99,1.81-1.27,3.82-2.35,5.11-4.26l-.05-.05c-1.72-.17-2.97,.94-4.35,1.65-30.9,15.94-63.41,22.1-97.88,15.87-22.91-4.14-42.84-14.36-59.57-30.5-19.01-18.34-29.75-40.83-32.6-67.1-1.87-17.21,.12-33.93,6.67-49.95,15.85-38.78,52.82-61.41,96.85-54.38,17.79,2.84,32.95,10.7,45.17,24.53,13.59,15.38,18.74,33.06,16.15,52.95-2.6,19.96-13.25,34.92-30.79,44.8-20.62,11.62-46.67,7.37-61.91-10.3-11.14-12.91-13.84-27.56-7.1-43.4,5.37-12.62,19.71-23.42,36.97-19.92,8.51,1.73,15.43,5.97,19.94,13.57,6.34,10.7,4.57,29.44-13.58,33.24-.26,.05-.51,.13-.77,.18-10.42,1.88-19.06-4.17-20.29-14.25-.22-1.83-.05-3.66,.24-5.5,.36-2.32-.85-4.04-2.82-4.52-2.06-.5-3.77,.46-4.39,2.9-.97,3.83-1.63,7.73-1.01,11.72,1.63,10.41,10.01,19.37,20.33,21.86,5.36,1.29,10.68,1.18,16.03,0,18.1-3.99,31.31-21.74,28.85-39.75-2-14.64-9.03-26.58-21.8-34.58-12.01-7.54-25.23-9.08-38.79-6.2-21.81,4.63-37.25,17.26-44.8,38.54-3.66,10.31-4.3,21.07-2.85,31.95,2.27,17.11,9.52,31.71,22.33,43.27,20.19,18.23,44.07,23.84,70.46,19.22,17.98-3.15,33.4-11.75,46.83-23.97,7.32-6.67,14.03-13.82,18.63-22.8,13.97-27.23,15.75-55.34,6.19-84.21-6.48-19.56-17.47-36.21-33.77-49.06Z"/><rect class="cls-3" x="-238.14" y="-1905.31" width="6973.76" height="3570.53"/></svg>